<!-- Generated by IcoMoon.io -->
<svg version="1.1" xmlns="http://www.w3.org/2000/svg" width="26" height="32" viewBox="0 0 26 32">
<title>search</title>
<path d="M14.553-0.647c-6.197 0-11.246 5.049-11.246 11.246 0 3.049 1.228 5.821 3.188 7.841l-6.257 9.425c-0.535 0.812-0.099 2.059 0.99 2.792l0.337 0.218c1.089 0.733 2.416 0.653 2.95-0.158l6.336-9.504c1.168 0.416 2.416 0.634 3.703 0.634 6.197 0 11.246-5.049 11.246-11.246s-5.049-11.246-11.246-11.246zM14.553 17.489c-3.801 0-6.89-3.089-6.89-6.89s3.109-6.89 6.89-6.89 6.89 3.089 6.89 6.89-3.089 6.89-6.89 6.89z"></path>
</svg>
